<?xml version="1.0" encoding="utf-8"?>
<!-- Generator: Adobe Illustrator 25.2.1, SVG Export Plug-In . SVG Version: 6.00 Build 0)  -->
<svg version="1.1" id="Layer_1" xmlns="http://www.w3.org/2000/svg" xmlns:xlink="http://www.w3.org/1999/xlink" x="0px" y="0px"
	 viewBox="0 0 162.8 141.2" style="enable-background:new 0 0 162.8 141.2;" xml:space="preserve">
<style type="text/css">
	.st0{fill:#68C2E1;}
	.st1{enable-background:new    ;}
	.st2{fill:#F9F9F9;}
</style>
<path id="Path_7_4_" class="st0" d="M158.6,57.4c0-28.9-34.5-52.3-76.8-52.3S4.9,28.6,4.9,57.4s34.5,52.3,76.8,52.3
	c4.6,0,9.2-0.3,13.8-0.9c0.3,4.4,2,8.5,4.9,11.8c4.6,5.4,14.7,12.5,36.7,15.4l0-0.3l0.2-0.3c-19.5-12.5-12.3-33.6-11.7-35.1
	C145.5,90.9,158.6,75.2,158.6,57.4z"/>
<g class="st1">
	<path class="st2" d="M57.7,50.2c-0.8,0.4-1.7,0.6-2.9,0.6c-1.5,0-2.7-0.5-3.6-1.4c-0.9-1-1.3-2.2-1.3-3.8c0-1.7,0.5-3,1.5-4.1
		s2.3-1.6,3.8-1.6c1,0,1.8,0.1,2.5,0.4v1.3C57,41.3,56.2,41,55.3,41c-1.2,0-2.2,0.4-2.9,1.2c-0.7,0.8-1.1,1.9-1.1,3.2
		c0,1.3,0.4,2.3,1.1,3.1c0.7,0.8,1.6,1.1,2.8,1.1c1.1,0,2-0.2,2.7-0.7V50.2z"/>
	<path class="st2" d="M65.9,50.6h-1.2v-4.3c0-1.6-0.6-2.3-1.7-2.3c-0.6,0-1.1,0.2-1.5,0.7c-0.4,0.5-0.6,1-0.6,1.7v4.2h-1.2V39.5h1.2
		v4.8h0c0.6-0.9,1.4-1.4,2.5-1.4c1.7,0,2.5,1,2.5,3.1V50.6z"/>
	<path class="st2" d="M73.6,50.6h-1.2v-1.2h0c-0.5,0.9-1.3,1.3-2.3,1.3c-0.7,0-1.3-0.2-1.8-0.6c-0.4-0.4-0.6-0.9-0.6-1.6
		c0-1.4,0.8-2.2,2.5-2.4l2.2-0.3c0-1.3-0.5-1.9-1.5-1.9c-0.9,0-1.7,0.3-2.4,0.9v-1.2c0.7-0.5,1.6-0.7,2.5-0.7c1.8,0,2.6,0.9,2.6,2.8
		V50.6z M72.4,46.8l-1.8,0.2c-0.6,0.1-1,0.2-1.3,0.4c-0.3,0.2-0.4,0.5-0.4,1.1c0,0.4,0.1,0.7,0.4,0.9c0.3,0.2,0.6,0.3,1,0.3
		c0.6,0,1.1-0.2,1.5-0.6c0.4-0.4,0.6-0.9,0.6-1.6V46.8z"/>
	<path class="st2" d="M79.3,50.5c-0.3,0.2-0.7,0.2-1.1,0.2c-1.3,0-2-0.7-2-2.2v-4.4h-1.3v-1h1.3v-1.8l1.2-0.4v2.2h1.9v1h-1.9v4.2
		c0,0.5,0.1,0.9,0.3,1.1s0.5,0.3,0.8,0.3c0.3,0,0.6-0.1,0.8-0.2V50.5z"/>
	<path class="st2" d="M95.7,50.6h-1.2v-4.3c0-0.8-0.1-1.4-0.4-1.8c-0.3-0.4-0.7-0.6-1.3-0.6c-0.5,0-0.9,0.2-1.3,0.7
		c-0.4,0.5-0.5,1-0.5,1.7v4.3h-1.2v-4.5c0-1.5-0.6-2.2-1.7-2.2c-0.5,0-1,0.2-1.3,0.7c-0.3,0.4-0.5,1-0.5,1.7v4.3H85v-7.5h1.2v1.2h0
		c0.5-0.9,1.3-1.4,2.3-1.4c0.5,0,1,0.1,1.3,0.4c0.4,0.3,0.6,0.7,0.8,1.1c0.6-1,1.4-1.6,2.5-1.6c1.7,0,2.5,1,2.5,3.1V50.6z"/>
	<path class="st2" d="M104,47.2h-5.3c0,0.8,0.2,1.5,0.7,1.9c0.4,0.5,1,0.7,1.8,0.7c0.8,0,1.6-0.3,2.3-0.8v1.1
		c-0.7,0.5-1.5,0.7-2.6,0.7c-1.1,0-1.9-0.3-2.5-1c-0.6-0.7-0.9-1.6-0.9-2.9c0-1.2,0.3-2.1,1-2.9c0.7-0.7,1.5-1.1,2.5-1.1
		s1.7,0.3,2.3,1s0.8,1.5,0.8,2.6V47.2z M102.8,46.1c0-0.7-0.2-1.2-0.5-1.6c-0.3-0.4-0.8-0.6-1.4-0.6c-0.6,0-1,0.2-1.4,0.6
		s-0.6,0.9-0.7,1.6H102.8z"/>
	<path class="st2" d="M112.2,50.6H111v-1.3h0c-0.6,1-1.4,1.5-2.6,1.5c-0.9,0-1.7-0.3-2.3-1c-0.6-0.7-0.8-1.6-0.8-2.7
		c0-1.2,0.3-2.2,0.9-3c0.6-0.7,1.5-1.1,2.5-1.1c1,0,1.8,0.4,2.2,1.2h0v-4.6h1.2V50.6z M111,47.2v-1.1c0-0.6-0.2-1.1-0.6-1.5
		s-0.9-0.6-1.5-0.6c-0.7,0-1.3,0.3-1.7,0.8s-0.6,1.3-0.6,2.2c0,0.9,0.2,1.5,0.6,2c0.4,0.5,0.9,0.8,1.6,0.8c0.7,0,1.2-0.2,1.6-0.7
		C110.8,48.6,111,48,111,47.2z"/>
</g>
<g class="st1">
	<path class="st2" d="M43,69.5L43,69.5l0,4.5h-1.2V63.1H43v1.3h0c0.6-1,1.5-1.5,2.6-1.5c1,0,1.7,0.3,2.3,1c0.5,0.7,0.8,1.6,0.8,2.7
		c0,1.3-0.3,2.3-0.9,3c-0.6,0.8-1.4,1.1-2.5,1.1C44.3,70.8,43.5,70.4,43,69.5z M43,66.5v1c0,0.6,0.2,1.1,0.6,1.6
		c0.4,0.4,0.9,0.6,1.5,0.6c0.7,0,1.3-0.3,1.7-0.8s0.6-1.3,0.6-2.3c0-0.8-0.2-1.5-0.6-2c-0.4-0.5-0.9-0.7-1.6-0.7
		c-0.7,0-1.3,0.2-1.7,0.7C43.2,65.2,43,65.8,43,66.5z"/>
	<path class="st2" d="M54.5,64.3c-0.2-0.2-0.5-0.2-0.9-0.2c-0.5,0-0.9,0.2-1.3,0.7c-0.3,0.5-0.5,1.1-0.5,2v3.8h-1.2v-7.5h1.2v1.5h0
		c0.2-0.5,0.4-0.9,0.8-1.2c0.4-0.3,0.7-0.4,1.2-0.4c0.3,0,0.6,0,0.7,0.1V64.3z"/>
	<path class="st2" d="M58.9,70.8c-1.1,0-2-0.4-2.7-1.1c-0.7-0.7-1-1.6-1-2.8c0-1.3,0.3-2.2,1-3c0.7-0.7,1.6-1.1,2.8-1.1
		c1.1,0,2,0.3,2.6,1c0.6,0.7,0.9,1.6,0.9,2.9c0,1.2-0.3,2.2-1,2.9C61,70.4,60.1,70.8,58.9,70.8z M59,63.9c-0.8,0-1.4,0.3-1.8,0.8
		c-0.4,0.5-0.7,1.2-0.7,2.2c0,0.9,0.2,1.6,0.7,2.1c0.5,0.5,1.1,0.8,1.8,0.8c0.8,0,1.4-0.3,1.8-0.8c0.4-0.5,0.6-1.2,0.6-2.1
		c0-0.9-0.2-1.7-0.6-2.2C60.4,64.2,59.8,63.9,59,63.9z"/>
	<path class="st2" d="M71,70.6h-1.2v-1.3h0c-0.6,1-1.4,1.5-2.6,1.5c-0.9,0-1.7-0.3-2.3-1c-0.6-0.7-0.8-1.6-0.8-2.7
		c0-1.2,0.3-2.2,0.9-3c0.6-0.7,1.5-1.1,2.5-1.1c1,0,1.8,0.4,2.2,1.2h0v-4.6H71V70.6z M69.8,67.2v-1.1c0-0.6-0.2-1.1-0.6-1.5
		s-0.9-0.6-1.5-0.6c-0.7,0-1.3,0.3-1.7,0.8S65.3,66,65.3,67c0,0.9,0.2,1.5,0.6,2c0.4,0.5,0.9,0.8,1.6,0.8c0.7,0,1.2-0.2,1.6-0.7
		C69.6,68.6,69.8,68,69.8,67.2z"/>
	<path class="st2" d="M79.5,70.6h-1.2v-1.2h0c-0.5,0.9-1.3,1.4-2.3,1.4c-1.8,0-2.7-1.1-2.7-3.2v-4.5h1.2v4.3c0,1.6,0.6,2.4,1.8,2.4
		c0.6,0,1.1-0.2,1.4-0.6c0.4-0.4,0.6-1,0.6-1.7v-4.3h1.2V70.6z"/>
	<path class="st2" d="M87,70.3c-0.6,0.3-1.3,0.5-2.1,0.5c-1.1,0-1.9-0.3-2.6-1c-0.7-0.7-1-1.6-1-2.7c0-1.2,0.4-2.2,1.1-3
		c0.7-0.7,1.7-1.1,2.8-1.1c0.7,0,1.2,0.1,1.7,0.4v1.2c-0.6-0.4-1.2-0.6-1.8-0.6c-0.8,0-1.4,0.3-1.9,0.8c-0.5,0.5-0.7,1.3-0.7,2.2
		c0,0.9,0.2,1.6,0.7,2.1c0.5,0.5,1.1,0.8,1.9,0.8c0.7,0,1.3-0.2,1.8-0.7V70.3z"/>
	<path class="st2" d="M94.9,67.2h-5.3c0,0.8,0.2,1.5,0.7,1.9c0.4,0.5,1,0.7,1.8,0.7c0.8,0,1.6-0.3,2.3-0.8v1.1
		c-0.7,0.5-1.5,0.7-2.6,0.7c-1.1,0-1.9-0.3-2.5-1c-0.6-0.7-0.9-1.6-0.9-2.9c0-1.2,0.3-2.1,1-2.9c0.7-0.7,1.5-1.1,2.5-1.1
		s1.7,0.3,2.3,1c0.5,0.6,0.8,1.5,0.8,2.6V67.2z M93.6,66.1c0-0.7-0.2-1.2-0.5-1.6c-0.3-0.4-0.8-0.6-1.4-0.6c-0.6,0-1,0.2-1.4,0.6
		s-0.6,0.9-0.7,1.6H93.6z"/>
	<path class="st2" d="M102.9,70.6h-1.2v-4.3c0-1.6-0.6-2.4-1.7-2.4c-0.6,0-1.1,0.2-1.5,0.7c-0.4,0.5-0.6,1-0.6,1.7v4.3h-1.2v-7.5
		h1.2v1.2h0c0.6-0.9,1.4-1.4,2.5-1.4c0.8,0,1.4,0.3,1.9,0.8c0.4,0.5,0.7,1.3,0.7,2.3V70.6z"/>
	<path class="st2" d="M108.6,70.5c-0.3,0.2-0.7,0.2-1.1,0.2c-1.3,0-2-0.7-2-2.2v-4.4h-1.3v-1h1.3v-1.8l1.2-0.4v2.2h1.9v1h-1.9v4.2
		c0,0.5,0.1,0.9,0.3,1.1s0.5,0.3,0.8,0.3c0.3,0,0.6-0.1,0.8-0.2V70.5z"/>
	<path class="st2" d="M116.3,67.2H111c0,0.8,0.2,1.5,0.7,1.9c0.4,0.5,1,0.7,1.8,0.7c0.8,0,1.6-0.3,2.3-0.8v1.1
		c-0.7,0.5-1.5,0.7-2.6,0.7c-1.1,0-1.9-0.3-2.5-1c-0.6-0.7-0.9-1.6-0.9-2.9c0-1.2,0.3-2.1,1-2.9c0.7-0.7,1.5-1.1,2.5-1.1
		s1.7,0.3,2.3,1c0.5,0.6,0.8,1.5,0.8,2.6V67.2z M115,66.1c0-0.7-0.2-1.2-0.5-1.6c-0.3-0.4-0.8-0.6-1.4-0.6c-0.6,0-1,0.2-1.4,0.6
		s-0.6,0.9-0.7,1.6H115z"/>
	<path class="st2" d="M122,64.3c-0.2-0.2-0.5-0.2-0.9-0.2c-0.5,0-0.9,0.2-1.3,0.7c-0.3,0.5-0.5,1.1-0.5,2v3.8h-1.2v-7.5h1.2v1.5h0
		c0.2-0.5,0.4-0.9,0.8-1.2c0.4-0.3,0.7-0.4,1.2-0.4c0.3,0,0.6,0,0.7,0.1V64.3z"/>
</g>
</svg>
